<?xml version="1.0" standalone="no"?>
<!DOCTYPE svg PUBLIC "-//W3C//DTD SVG 20010904//EN"
 "http://www.w3.org/TR/2001/REC-SVG-20010904/DTD/svg10.dtd">
<svg version="1.0" xmlns="http://www.w3.org/2000/svg"
 width="4167.000000pt" height="4167.000000pt" viewBox="0 0 4167.000000 4167.000000"
 preserveAspectRatio="xMidYMid meet">
<metadata>
Created by potrace 1.11, written by Peter Selinger 2001-2013
</metadata>
<g transform="translate(0.000000,4167.000000) scale(0.100000,-0.100000)"
fill="#000000" stroke="none">
<path d="M0 20840 l0 -20830 20830 0 20830 0 0 20830 0 20830 -20830 0 -20830
0 0 -20830z m23942 13981 c-4 -10 -2835 -6312 -6292 -14005 l-6285 -13985
-2553 -1 c-1573 0 -2552 4 -2550 9 2 5 2834 6308 6293 14005 l6290 13996 2552
0 c2497 0 2552 0 2545 -19z m11402 -123 c-35 -79 -2867 -6380 -6293 -14003
l-6229 -13860 -2552 -3 c-2428 -2 -2552 -1 -2547 15 3 10 2829 6302 6282
13983 3452 7681 6281 13975 6286 13988 l9 22 2554 0 2555 0 -65 -142z"/>
</g>
</svg>
