<?xml version="1.0" encoding="utf-8"?>
<!-- Generator: Adobe Illustrator 24.0.3, SVG Export Plug-In . SVG Version: 6.00 Build 0)  -->
<svg version="1.1" id="Layer_1" xmlns="http://www.w3.org/2000/svg" xmlns:xlink="http://www.w3.org/1999/xlink" x="0px" y="0px"
	 viewBox="0 0 600 300" enable-background="new 0 0 600 300" xml:space="preserve">
<g>
	<path fill="#77871A" d="M548.4,274.3c0.4-1.8,0.6-3.6,0.6-5.5c0-11.1-6.7-20.3-15.4-21.9c-1.9-13-10.5-22.8-20.8-22.8
		c-10.3,0-18.8,9.7-20.8,22.6c-0.3,0-0.5-0.1-0.8-0.1c-8.6,0-15.6,9.3-15.6,20.9c0,2.4,0.3,4.7,0.9,6.8H548.4z"/>
	<rect x="85.2" y="120.3" fill="#12101C" width="62.2" height="11.9"/>
	<polygon fill="#EADC8C" points="347.9,140.8 146,140.8 146,29 347.9,84.9 	"/>
	<polygon fill="#9378BA" points="494.8,271.9 100,271.9 100,262.8 109.4,262.8 104.2,155 100,155 100,130.4 534.2,61.2 	"/>
	<polygon fill="#6C5584" points="362.8,90 362.8,271.9 496.8,271.9 534.2,61.2 	"/>
	<g>
		<polygon fill="#47385B" points="527.1,101.2 526.4,105 362.8,105 362.8,101.2 		"/>
		<polygon fill="#47385B" points="523.4,122.1 522.7,125.9 362.8,125.9 362.8,122.1 		"/>
		<polygon fill="#47385B" points="519.7,143 519,146.7 362.8,146.7 362.8,143 		"/>
		<polygon fill="#47385B" points="516,163.8 515.3,167.6 362.8,167.6 362.8,163.8 		"/>
		<polygon fill="#47385B" points="512.3,184.7 511.6,188.5 362.8,188.5 362.8,184.7 		"/>
		<polygon fill="#47385B" points="508.6,205.5 507.9,209.3 362.8,209.3 362.8,205.5 		"/>
		<polygon fill="#47385B" points="504.9,226.4 504.2,230.2 362.8,230.2 362.8,226.4 		"/>
		<polygon fill="#47385B" points="501.2,247.3 500.5,251 362.8,251 362.8,247.3 		"/>
		<polygon fill="#47385B" points="497.5,268.1 496.8,271.9 362.8,271.9 362.8,268.1 		"/>
	</g>
	<polygon fill="#47385B" points="530.3,83 529.6,86.8 381.7,86.8 404.1,83 	"/>
	<polygon fill="#47385B" points="533.5,64.8 532.9,68.6 490.5,68.6 513,64.8 	"/>
	<g>
		
			<rect x="79.8" y="90.7" transform="matrix(0.9858 -0.1682 0.1682 0.9858 -11.979 55.389)" fill="#484063" width="482.2" height="15.5"/>
	</g>
	<g>
		<polygon fill="#484063" points="360.6,94 128.8,29.9 131.8,18.7 367.7,84 		"/>
	</g>
	<g>
		<path fill="#12101C" d="M146,100.3H80.3c-1.1,0-1.9-0.9-1.9-1.9l0,0c0-1.1,0.9-1.9,1.9-1.9H146V100.3z"/>
	</g>
	<g>
		<rect x="86.2" y="98.4" fill="#12101C" width="2.6" height="23.3"/>
	</g>
	<g>
		<rect x="95.7" y="98.4" fill="#12101C" width="2.6" height="23.3"/>
	</g>
	<g>
		<rect x="105.3" y="98.4" fill="#12101C" width="2.6" height="23.3"/>
	</g>
	<g>
		<rect x="115.4" y="98.4" fill="#12101C" width="2.6" height="23.3"/>
	</g>
	<g>
		<rect x="126.1" y="98.4" fill="#12101C" width="2.6" height="23.3"/>
	</g>
	<g>
		<rect x="135.4" y="98.4" fill="#12101C" width="2.6" height="23.3"/>
	</g>
	<g>
		<rect x="411.8" y="109.3" fill="#2EC1CC" width="47.7" height="112.7"/>
		<g>
			<polygon fill="#18A4B7" points="428.8,117.5 459.6,117.5 459.6,109.3 411.8,109.3 411.8,222.1 428.8,222.1 			"/>
			<path fill="#262816" d="M409.7,107.6v116.3h25.8h1.7h24.6V107.6H409.7z M457.4,141.1h-20.3v-30h20.3V141.1z M437.2,142.5h20.3
				V172h-20.3V142.5z M435.5,111.1v30H414v-30H435.5z M435.5,172H414v-29.4h21.5V172z M414,220.3v-46.9h21.5v46.9H414z M437.2,220.3
				v-46.9h20.3v46.9H437.2z"/>
		</g>
	</g>
	<polygon fill="#262816" points="264.3,262.8 103.6,262.8 100,155 264.3,155 	"/>
	<polygon fill="#2EC1CC" points="258.5,157.7 258.5,260 103.5,260 100.1,157.7 	"/>
	<polygon fill="#18A4B7" points="100.1,157.7 100.7,175.1 241.3,175.5 241.3,260 258.5,260 258.5,157.7 	"/>
	<polygon fill="#262816" points="100.7,175 123.2,175 123.2,157.2 126.1,157.2 126.1,175 153.6,175 153.6,157.2 156.5,157.2 
		156.5,175 180.7,175 180.7,157.2 183.6,157.2 183.6,175 206.9,175 206.9,157.3 209.8,157.3 209.8,174.6 232.4,175 232.4,157.2 
		235.3,157.2 235.3,175 258.5,175 260.3,175 260.3,176.9 258.5,176.9 235.3,176.9 235.3,260.3 232.4,260.3 232.4,176.9 209.8,176.9 
		209.8,260.3 206.9,260.3 206.9,176.9 183.6,176.9 183.6,260.6 180.7,260.6 180.7,176.9 156.5,176.9 156.5,260.8 153.6,260.8 
		153.6,176.9 126.1,176.9 126.1,260.5 123.2,260.5 123.2,176.9 100.7,176.9 	"/>
	<g>
		<rect x="150.9" y="59.4" fill="#2EC1CC" width="72.2" height="20.9"/>
		<polygon fill="#18A4B7" points="156.7,65.3 223.1,65.3 223.1,59.4 150.9,59.4 150.9,80.3 156.7,80.3 		"/>
		<path fill="#FFEFEE" d="M150.1,58.6v22.5h73.8V58.6H150.1z M174.1,79.5h-22.3V60.2h22.3V79.5z M200.2,79.5h-24.4V60.2h24.4V79.5z
			 M222.3,79.5h-20.4V60.2h20.4V79.5z"/>
	</g>
	<rect x="305.9" y="171.6" fill="#262816" width="41.9" height="100.3"/>
	<rect x="305.9" y="171.6" fill="#453B4C" width="35.6" height="100.3"/>
	<path fill="#DD642F" d="M314.4,224.1c0,1.3-1,2.3-2.3,2.3c-1.3,0-2.3-1-2.3-2.3c0-1.3,1-2.3,2.3-2.3
		C313.4,221.7,314.4,222.8,314.4,224.1z"/>
	<g>
		<path fill="#DD642F" d="M335.7,157.3c0,4.8-3.9,8.8-8.8,8.8c-4.8,0-8.8-3.9-8.8-8.8c0-4.8,3.9-8.8,8.8-8.8
			C331.7,148.6,335.7,152.5,335.7,157.3z"/>
		<path fill="#F2E4A0" d="M335.1,157.3c0,4.5-3.7,8.2-8.2,8.2c-4.5,0-8.2-3.7-8.2-8.2c0-4.5,3.7-8.2,8.2-8.2
			C331.4,149.1,335.1,152.8,335.1,157.3z"/>
		<path fill="#FCF5D6" d="M320.5,158.8c0-4.5,3.7-8.2,8.2-8.2c1.6,0,3.1,0.5,4.3,1.2c-1.5-1.7-3.7-2.7-6.1-2.7
			c-4.5,0-8.2,3.7-8.2,8.2c0,3,1.6,5.6,3.9,7C321.3,162.9,320.5,161,320.5,158.8z"/>
	</g>
	<path fill="#93AA31" d="M106.4,272.3c0.3-0.9,0.4-1.8,0.4-2.7c0-5.4-4.7-9.9-10.8-10.7c-1.4-6.4-7.4-11.2-14.6-11.2
		c-7.2,0-13.2,4.7-14.6,11.1c-0.2,0-0.3,0-0.5,0c-6,0-11,4.6-11,10.2c0,1.2,0.2,2.3,0.6,3.3H106.4z"/>
	<rect x="23.8" y="271.9" fill="#3A1A08" width="552.4" height="9.4"/>
</g>
</svg>
