<?xml version="1.0" encoding="utf-8"?>
<!-- Generator: Adobe Illustrator 24.1.0, SVG Export Plug-In . SVG Version: 6.00 Build 0)  -->
<svg version="1.1" id="Layer_1" xmlns="http://www.w3.org/2000/svg" xmlns:xlink="http://www.w3.org/1999/xlink" x="0px" y="0px"
	 viewBox="0 0 600 200" enable-background="new 0 0 600 200" xml:space="preserve">
<g>
	<path fill="#FFFFFF" d="M192.9,49.5l7.2,59.5l7.2-59.5h18.6l-17,99.6H191l-16.6-99.6H192.9z"/>
	<path fill="#FFFFFF" d="M294.8,149.1h-18.7L275,138h-14.3l-1.3,11.1h-18.7l12.2-99.6h30.5L294.8,149.1z M262.2,119.7h11L267.9,67
		L262.2,119.7z"/>
	<path fill="#FFFFFF" d="M349.2,130.4v18.7H315V49.5h19.6v80.9H349.2z"/>
	<path fill="#FFFFFF" d="M422.2,124.2c0,9.3-0.8,13.1-3.9,17.9c-3.7,5.8-12,9.1-22.5,9.1c-9.3,0-17-3.2-20.8-8.7
		c-3-4.4-3.9-9-3.9-18.1V49.5h19.6v72.3v1.8c0,6.3,2,9,6.6,9c4.1,0,5.9-2.7,5.9-8.4V49.5h19.1V124.2z"/>
	<path fill="#FFFFFF" d="M504.9,149.1h-20.3L467.5,104v45.2H448V49.5h27.6c10,0,13.5,0.6,17.2,2.5c4.4,2.5,6.3,7.2,6.3,15.5v16.3
		c0,10.7-3.5,15.5-12.9,17.6L504.9,149.1z M467.2,85.4h6.5c4.6,0,6.3-2.1,6.3-7.6v-2.1c0-5.9-1.1-7.5-5.3-7.5h-7.5V85.4z"/>
	<path fill="#FFFFFF" d="M524.9,49.5H565v18.3h-20.8v18.3H565v18.6h-20.8v26.2H565v18.3h-40.1V49.5z"/>
</g>
<g>
	<path fill="#47A347" d="M83.8,49.5h18.1l-44.8,99.6H39L83.8,49.5z"/>
	<path fill="#47A347" d="M124.5,49.5h18.1l-44.8,99.6H79.7L124.5,49.5z"/>
</g>
</svg>
